<svg xmlns="http://www.w3.org/2000/svg" viewBox="0 0 800 600" role="img"><title>Pièce de 2 euros examinée à la loupe</title><defs>
<linearGradient id="silver" x1="0" y1="0" x2="1" y2="1"><stop offset="0" stop-color="#fbfaf6"/><stop offset=".45" stop-color="#d4cfc2"/><stop offset="1" stop-color="#8f8979"/></linearGradient>
<linearGradient id="silverEdge" x1="1" y1="0" x2="0" y2="1"><stop offset="0" stop-color="#e9e5da"/><stop offset="1" stop-color="#6f6a5c"/></linearGradient>
<linearGradient id="gold" x1="0" y1="0" x2="1" y2="1"><stop offset="0" stop-color="#f0d99b"/><stop offset=".5" stop-color="#c29c4d"/><stop offset="1" stop-color="#8a6a2b"/></linearGradient>
<linearGradient id="goldEdge" x1="1" y1="0" x2="0" y2="1"><stop offset="0" stop-color="#ecd493"/><stop offset="1" stop-color="#7a5c22"/></linearGradient>
<linearGradient id="sheen" x1="0" y1="0" x2="1" y2="1"><stop offset="0" stop-color="#fff" stop-opacity=".5"/><stop offset=".38" stop-color="#fff" stop-opacity="0"/><stop offset="1" stop-color="#000" stop-opacity=".2"/></linearGradient>
<radialGradient id="shadow"><stop offset="0" stop-color="#000" stop-opacity=".45"/><stop offset="1" stop-color="#000" stop-opacity="0"/></radialGradient>
<radialGradient id="glow"><stop offset="0" stop-color="#c9a965" stop-opacity=".45"/><stop offset="1" stop-color="#c9a965" stop-opacity="0"/></radialGradient>
<linearGradient id="bgink" x1="0" y1="0" x2="1" y2="1"><stop offset="0" stop-color="#232a35"/><stop offset="1" stop-color="#0f1318"/></linearGradient><linearGradient id="bgpaper" x1="0" y1="0" x2="1" y2="1"><stop offset="0" stop-color="#f6f1e6"/><stop offset="1" stop-color="#e9dfc8"/></linearGradient></defs><rect width="800" height="600" fill="url(#bgpaper)"/><circle cx="330" cy="270" r="300" fill="url(#glow)"/><ellipse cx="284.4" cy="432.8" rx="165.6" ry="25.2" fill="url(#shadow)"/><g transform="translate(90.0 80.0) rotate(-6 180.0 180.0) scale(1.8000)"><g><circle cx="100" cy="100" r="98" fill="url(#silverEdge)"/><circle cx="100" cy="100" r="97" fill="none" stroke="#fff" stroke-opacity=".38" stroke-width="3.2" stroke-dasharray="1.1 1.9"/><circle cx="100" cy="100" r="94" fill="url(#silver)"/><circle cx="100" cy="100" r="66" fill="#000" fill-opacity=".14"/><circle cx="100" cy="100" r="64.5" fill="url(#gold)"/><circle cx="100" cy="100" r="58" fill="none" stroke="#fff" stroke-opacity=".28" stroke-width="1.2"/><path id="e1t" d="M24 100 A76 76 0 0 1 176 100" fill="none"/><text font-family="Arial,Helvetica,sans-serif" font-weight="700" font-size="11" letter-spacing="2.6" fill="#6b6657"><textPath href="#e1t" startOffset="50%" text-anchor="middle">EXPERTISE</textPath></text><path id="e1b" d="M15 100 A85 85 0 0 0 185 100" fill="none"/><text font-family="Arial,Helvetica,sans-serif" font-weight="700" font-size="11" letter-spacing="2.6" fill="#6b6657"><textPath href="#e1b" startOffset="50%" text-anchor="middle">NUMISMATIQUE</textPath></text><polygon points="26.0,95.8 27.0,98.6 30.0,98.7 27.7,100.5 28.5,103.4 26.0,101.8 23.5,103.4 24.3,100.5 22.0,98.7 25.0,98.6" fill="#6b6657"/><polygon points="174.0,95.8 175.0,98.6 178.0,98.7 175.7,100.5 176.5,103.4 174.0,101.8 171.5,103.4 172.3,100.5 170.0,98.7 173.0,98.6" fill="#6b6657"/><g><text x="99" y="126" font-family="Georgia,'Times New Roman',serif" font-weight="700" font-size="34" text-anchor="middle" fill="#fff6d8" opacity="0.55">2</text><text x="100" y="127" font-family="Georgia,'Times New Roman',serif" font-weight="700" font-size="34" text-anchor="middle" fill="#5e4513" opacity="1">2</text><g fill="#5e4513"><ellipse cx="100" cy="76" rx="6" ry="14" transform="rotate(0 100 90)"/><ellipse cx="100" cy="76" rx="6" ry="14" transform="rotate(60 100 90)"/><ellipse cx="100" cy="76" rx="6" ry="14" transform="rotate(120 100 90)"/><ellipse cx="100" cy="76" rx="6" ry="14" transform="rotate(180 100 90)"/><ellipse cx="100" cy="76" rx="6" ry="14" transform="rotate(240 100 90)"/><ellipse cx="100" cy="76" rx="6" ry="14" transform="rotate(300 100 90)"/><circle cx="100" cy="90" r="5" fill="#f0d99b"/></g></g><circle cx="100" cy="100" r="98" fill="url(#sheen)"/><circle cx="100" cy="100" r="98" fill="none" stroke="#000" stroke-opacity=".25" stroke-width="1"/></g></g><g transform="translate(310.0 220.0) rotate(0 50 50) scale(3.300)"><path d="M66 66 L94 94" stroke="#161b22" stroke-width="11" stroke-linecap="round"/><path d="M66 66 L94 94" stroke="#a6823c" stroke-width="5" stroke-linecap="round"/><circle cx="42" cy="42" r="34" fill="#fff" fill-opacity=".14" stroke="#a6823c" stroke-width="7"/><circle cx="42" cy="42" r="34" fill="none" stroke="#161b22" stroke-width="2" stroke-opacity=".5"/><path d="M22 36 A22 22 0 0 1 36 22" fill="none" stroke="#fff" stroke-width="4" stroke-linecap="round" stroke-opacity=".85"/></g></svg>